<?xml version="1.0" encoding="utf-8"?>
<!-- Generator: Adobe Illustrator 17.0.0, SVG Export Plug-In . SVG Version: 6.00 Build 0)  -->
<!DOCTYPE svg PUBLIC "-//W3C//DTD SVG 1.1//EN" "http://www.w3.org/Graphics/SVG/1.1/DTD/svg11.dtd">
<svg version="1.1" id="Layer_1" xmlns="http://www.w3.org/2000/svg" xmlns:xlink="http://www.w3.org/1999/xlink" x="0px" y="0px"
	 width="65px" height="65px" viewBox="0 0 65 65" enable-background="new 0 0 65 65" xml:space="preserve">
<g>
	<g>
		<circle fill-rule="evenodd" clip-rule="evenodd" fill="#FFFFFF" cx="32.5" cy="32.5" r="32.5"/>
	</g>
	<path fill="#FF0000" d="M38.215,20.434v-1.27c0-1.403-1.137-2.54-2.54-2.54h-6.351c-1.403,0-2.54,1.137-2.54,2.54v1.27h-6.351v1.27
		h1.308l1.272,24.132c0,1.403,1.138,2.54,2.54,2.54h13.971c1.403,0,2.54-1.137,2.54-2.54l1.249-24.132h1.251v-1.27H38.215z
		 M28.055,19.164c0-0.7,0.569-1.27,1.27-1.27h6.351c0.7,0,1.27,0.57,1.27,1.27v1.27h-8.891V19.164z M28.086,44.606l-1.3-20.282
		l1.268-0.081l1.3,20.282L28.086,44.606z M33.135,44.566h-1.27V24.244h1.27V44.566z M36.943,44.606l-1.268-0.079l1.282-20.322
		l1.268,0.079L36.943,44.606z"/>
</g>
</svg>
